<?xml version="1.0" encoding="UTF-8" standalone="no"?>
<svg
   xmlns:dc="http://purl.org/dc/elements/1.1/"
   xmlns:cc="http://creativecommons.org/ns#"
   xmlns:rdf="http://www.w3.org/1999/02/22-rdf-syntax-ns#"
   xmlns:svg="http://www.w3.org/2000/svg"
   xmlns="http://www.w3.org/2000/svg"
   xmlns:sodipodi="http://sodipodi.sourceforge.net/DTD/sodipodi-0.dtd"
   xmlns:inkscape="http://www.inkscape.org/namespaces/inkscape"
   inkscape:version="1.0beta2 (2b71d25, 2019-12-03)"
   sodipodi:docname="kanivis.svg"
   id="svg36"
   viewBox="0 0 512 512"
   height="512"
   width="512"
   version="1.1">
  <metadata
     id="metadata42">
    <rdf:RDF>
      <cc:Work
         rdf:about="">
        <dc:format>image/svg+xml</dc:format>
        <dc:type
           rdf:resource="http://purl.org/dc/dcmitype/StillImage" />
        <dc:title></dc:title>
      </cc:Work>
    </rdf:RDF>
  </metadata>
  <defs
     id="defs40" />
  <sodipodi:namedview
     inkscape:current-layer="svg36"
     inkscape:window-maximized="0"
     inkscape:window-y="23"
     inkscape:window-x="0"
     inkscape:cy="253.84501"
     inkscape:cx="55.046987"
     inkscape:zoom="2.625"
     showgrid="false"
     id="namedview38"
     inkscape:window-height="480"
     inkscape:window-width="776"
     inkscape:pageshadow="2"
     inkscape:pageopacity="0"
     guidetolerance="10"
     gridtolerance="10"
     objecttolerance="10"
     borderopacity="1"
     inkscape:document-rotation="0"
     bordercolor="#666666"
     pagecolor="#ffffff" />
  <g
     inkscape:export-ydpi="384"
     inkscape:export-xdpi="384"
     id="g1084">
    <g
       id="g10"
       transform="matrix(1.0009869,0,0,1.0010075,-0.0121374,-114.45803)" />
    <g
       id="g169"
       transform="matrix(0.52522085,0,0,0.52523166,5.8388335,123.28811)">
      <path
         id="path12"
         fill="#000000"
         d="m 478.976,256.021 c 0,122.962 -100.024,222.976 -222.966,222.976 -122.942,0 -222.986,-100.014 -222.986,-222.976 0,-122.962 100.045,-222.976 222.986,-222.976 122.941,0 222.966,100.014 222.966,222.976 z M 256.01,12.298 C 121.63,12.298 12.298,121.661 12.298,256.02 12.298,390.4 121.63,499.702 256.01,499.702 390.39,499.702 499.712,390.4 499.712,256.02 499.712,121.661 390.39,12.298 256.01,12.298 Z"
         inkscape:connector-curvature="0" />
      <path
         id="path14"
         fill="#000000"
         d="M 303.268,208.763 256.011,33.259 208.754,208.763 33.25,255.979 208.754,303.257 256.011,478.76 303.268,303.256 478.771,255.978 303.267,208.762 Z M 256.01,310.344 c -29.962,0 -54.344,-24.382 -54.344,-54.364 0,-29.942 24.381,-54.303 54.344,-54.303 29.963,0 54.334,24.361 54.334,54.303 0,29.982 -24.371,54.364 -54.334,54.364 z"
         inkscape:connector-curvature="0" />
      <path
         id="path16"
         fill="#000000"
         d="m 256.01,222.403 c -18.544,0 -33.618,15.104 -33.618,33.577 0,18.565 15.084,33.618 33.618,33.618 18.524,0 33.608,-15.063 33.608,-33.618 0,-18.483 -15.084,-33.577 -33.608,-33.577 z"
         inkscape:connector-curvature="0" />
      <path
         id="path18"
         fill="#000000"
         d="m 202.465,256.738 -71.66,124.457 123.3,-71.004 c -28.508,-1.372 -51.303,-24.647 -51.641,-53.453 z"
         inkscape:connector-curvature="0" />
      <path
         id="path20"
         fill="#000000"
         d="m 310.774,253.123 70.43,-122.296 -123.474,71.076 c 28.467,0.522 51.456,23.04 53.043,51.22 z"
         inkscape:connector-curvature="0" />
      <path
         id="path22"
         fill="#000000"
         d="m 310.805,258.939 c -1.485,28.201 -24.32,50.657 -52.685,51.405 l 123.075,70.861 -70.39,-122.265 z"
         inkscape:connector-curvature="0" />
      <path
         id="path24"
         fill="#000000"
         d="m 254.484,202.035 -123.668,-71.219 71.68,124.477 c 0.44,-28.795 23.378,-52.071 51.989,-53.258 z"
         inkscape:connector-curvature="0" />
      <path
         id="path26"
         fill="#000000"
         d="m 256.738,222.515 c -18.535,0 -33.608,15.084 -33.608,33.618 0,18.534 15.084,33.598 33.608,33.598 18.545,0 33.608,-15.063 33.608,-33.597 0,-18.534 -15.063,-33.618 -33.608,-33.618 z"
         inkscape:connector-curvature="0" />
      <path
         id="path28"
         fill="#000000"
         d="m 257.731,201.902 c -0.327,0 -0.645,-0.102 -0.993,-0.102 -0.768,0 -1.485,0.185 -2.263,0.236 l 1.526,0.881 1.731,-1.014 z"
         inkscape:connector-curvature="0" />
      <path
         id="path30"
         fill="#000000"
         d="m 310.805,258.939 c 0.031,-0.962 0.276,-1.863 0.276,-2.796 0,-1.044 -0.246,-1.997 -0.307,-3.021 l -1.659,2.857 1.69,2.959 z"
         inkscape:connector-curvature="0" />
      <path
         id="path32"
         fill="#000000"
         d="m 254.106,310.2 c 0.891,0.062 1.731,0.276 2.632,0.276 0.461,0 0.911,-0.144 1.382,-0.144 l -2.11,-1.239 -1.905,1.106 z"
         inkscape:connector-curvature="0" />
      <path
         id="path34"
         fill="#000000"
         d="m 202.486,255.304 c 0,0.276 -0.082,0.583 -0.082,0.84 0,0.205 0.061,0.379 0.061,0.604 l 0.42,-0.758 z"
         inkscape:connector-curvature="0" />
    </g>
    <ellipse
       style="fill:#ffffff;fill-rule:evenodd;stroke-width:4;stroke:#ff0000;stroke-opacity:1;fill-opacity:1;stroke-miterlimit:4;stroke-dasharray:none"
       id="path176"
       cx="140.298"
       cy="257.74741"
       rx="58.24221"
       ry="58.243408" />
    <g
       id="g155"
       transform="matrix(0.11822875,0,0,0.11823119,102.4648,228.10279)">
      <path
         id="path132"
         d="m 627.5,199.40234 c -6.90625,0 -12.5,5.60157 -12.5,12.5 v 44.54688 c 0,25.5625 -20.80078,46.36328 -46.36328,46.36328 h -71.25 c -3.31641,0 -6.49219,1.3125 -8.83985,3.65625 l -86.3789,86.38281 V 315.3125 c 0,-6.90625 -5.59766,-12.5 -12.5,-12.5 H 210.69922 c -25.5625,0 -46.36328,-20.79688 -46.36328,-46.36328 V 67.359375 C 164.33594,41.796875 185.13672,21 210.69922,21 h 357.9375 C 594.19922,21 615,41.796875 615,67.359375 v 44.542965 c 0,6.90625 5.59375,12.5 12.5,12.5 6.89844,0 12.5,-5.59375 12.5,-12.5 V 67.359375 C 640,28.011719 607.98828,-4 568.63672,-4 h -357.9375 c -39.35156,0 -71.36328,32.011719 -71.36328,71.359375 V 227.94922 H 48.355469 C 21.695312,227.94922 0,249.63672 0,276.30469 v 115.1875 c 0,26.66797 21.695312,48.35547 48.355469,48.35547 h 38.230469 l 61.953122,61.95703 c 2.39453,2.39453 5.59375,3.66406 8.84375,3.66406 1.60938,0 3.23828,-0.3125 4.78125,-0.95313 4.67188,-1.93359 7.71875,-6.48828 7.71875,-11.54687 v -53.12109 h 96.52344 c 26.66406,0 48.35547,-21.6875 48.35547,-48.35547 V 327.8125 h 62.40625 v 95.21484 c 0,5.0586 3.04687,9.61328 7.71875,11.54688 1.54297,0.64062 3.16797,0.95312 4.78125,0.95312 3.2539,0 6.44922,-1.26953 8.83984,-3.66406 L 502.5625,327.8125 h 66.07422 C 607.98828,327.8125 640,295.80078 640,256.44922 v -44.54688 c 0,-6.89843 -5.60156,-12.5 -12.5,-12.5 z M 289.76562,391.49219 c 0,12.88281 -10.47656,23.35547 -23.35937,23.35547 H 157.38281 c -6.90625,0 -12.5,5.60156 -12.5,12.5 v 35.44531 l -44.28125,-44.28125 c -2.343748,-2.34375 -5.523435,-3.66406 -8.839841,-3.66406 H 48.355469 C 35.476562,414.84766 25,404.375 25,391.49219 v -115.1875 c 0,-12.87891 10.476562,-23.35547 23.355469,-23.35547 h 90.980471 v 3.5 c 0,39.35156 32.01172,71.36328 71.36328,71.36328 h 79.0664 z m 0,0"
         inkscape:connector-curvature="0" />
      <path
         id="path134"
         d="m 511.54297,77.914062 h -243.75 c -6.90235,0 -12.5,5.597657 -12.5,12.5 0,6.90625 5.59765,12.499998 12.5,12.499998 h 243.75 c 6.90234,0 12.5,-5.593748 12.5,-12.499998 0,-6.902343 -5.59766,-12.5 -12.5,-12.5 z m 0,0"
         inkscape:connector-curvature="0" />
      <path
         id="path136"
         d="m 524.04297,157.91797 c 0,-6.90235 -5.59766,-12.5 -12.5,-12.5 h -243.75 c -6.90235,0 -12.5,5.59765 -12.5,12.5 0,6.90625 5.59765,12.5 12.5,12.5 h 243.75 c 6.90234,0 12.5,-5.59375 12.5,-12.5 z m 0,0"
         inkscape:connector-curvature="0" />
      <path
         id="path138"
         d="m 267.79297,212.91797 c -6.90235,0 -12.5,5.59765 -12.5,12.5 0,6.90625 5.59765,12.5 12.5,12.5 h 140.625 c 6.90234,0 12.5,-5.59375 12.5,-12.5 0,-6.90235 -5.59766,-12.5 -12.5,-12.5 z m 0,0"
         inkscape:connector-curvature="0" />
      <path
         id="path140"
         d="m 627.5,149.40234 c -6.88281,0 -12.5,5.61719 -12.5,12.5 0,6.88672 5.61719,12.5 12.5,12.5 6.88281,0 12.5,-5.61328 12.5,-12.5 0,-6.88281 -5.61719,-12.5 -12.5,-12.5 z m 0,0"
         inkscape:connector-curvature="0" />
    </g>
  </g>
</svg>
